<?xml version="1.0" encoding="utf-8"?>
<!-- Generator: Adobe Illustrator 16.0.0, SVG Export Plug-In . SVG Version: 6.00 Build 0)  -->
<!DOCTYPE svg PUBLIC "-//W3C//DTD SVG 1.1//EN" "http://www.w3.org/Graphics/SVG/1.1/DTD/svg11.dtd">
<svg version="1.1" id="Layer_1" xmlns="http://www.w3.org/2000/svg" xmlns:xlink="http://www.w3.org/1999/xlink" x="0px" y="0px"
	 width="282px" height="282.002px" viewBox="0 0 282 282.002" style="enable-background:new 0 0 282 282.002;" xml:space="preserve"
	>
<style type="text/css">
<![CDATA[
	.st0{fill:#AA9678;}
	.st1{fill:#BCBCBC;stroke:#FFFFFF;stroke-miterlimit:10;}
	.st2{fill:none;stroke:#FFFFFF;stroke-width:0.5;stroke-linecap:round;stroke-miterlimit:10;}
	.st3{fill:none;stroke:#FFFFFF;stroke-miterlimit:10;}
	.st4{fill:#BCBCBC;}
	.st5{fill:none;stroke:#FFFFFF;stroke-linecap:round;stroke-miterlimit:10;}
	.st6{stroke:#FFFFFF;stroke-linecap:round;stroke-miterlimit:10;}
	.st7{opacity:0.2;fill:#AA9678;enable-background:new    ;}
	.st8{fill:#FFFFFF;}
	.st9{fill:#CAC6C5;}
	.st10{fill:none;stroke:#FFFFFF;stroke-width:2.5673;stroke-linecap:round;stroke-miterlimit:10;}
	.st11{stroke:#000000;stroke-miterlimit:10;}
]]>
</style>
<g>
	<g>
		<path class="st0" d="M830.937,141.014c0,13.299-2.113,26.107-6.008,38.127l16.254,5.278c4.436-13.682,6.844-28.267,6.844-43.406
			c0-15.268-2.449-29.971-6.957-43.752l-16.254,5.281C828.783,114.66,830.937,127.59,830.937,141.014z"/>
		<path class="st7" d="M706.863,17.09c27.148,0,52.359,8.783,72.799,23.65l10.078-13.82C766.478,9.996,737.746,0,706.845,0
			c-0.404,0-0.346,0.012-1.346,0.014v17.094C706.5,17.102,706.457,17.09,706.863,17.09z"/>
		<path class="st0" d="M779.919,241.156l10.041,13.819c23.783-17.358,41.951-41.971,51.223-70.557l-16.254-5.279
			C816.785,204.267,800.82,225.897,779.919,241.156z"/>
		<path class="st0" d="M824.816,102.543l16.252-5.281c-9.326-28.51-27.514-53.045-51.289-70.342l-10.043,13.82
			C800.632,55.934,816.615,77.492,824.816,102.543z"/>
		<g>
			<path class="st0" d="M634.138,40.74C654.275,26.098,678.5,17.365,705.5,17.107V0.014c-30,0.26-58.521,10.205-81.479,26.906
				L634.138,40.74z"/>
			<path class="st0" d="M633.957,241.156l-10.113,13.819c22.988,16.777,51.656,26.775,81.656,27.033v-17.09
				C678.5,264.662,654.125,255.879,633.957,241.156z"/>
			<path class="st0" d="M589.101,179.137l-16.254,5.283c9.271,28.586,27.438,53.197,51.221,70.558l10.041-13.82
				C613.207,225.897,597.242,204.267,589.101,179.137z"/>
			<path class="st0" d="M583.091,141.014c0-13.424,2.156-26.354,6.123-38.471l-16.256-5.281
				c-4.508,13.781-6.959,28.484-6.959,43.752c0,15.141,2.412,29.725,6.848,43.406l16.254-5.282
				C585.207,167.121,583.091,154.312,583.091,141.014z"/>
			<path class="st0" d="M634.291,40.74L624.25,26.92c-23.779,17.297-41.963,41.832-51.291,70.342l16.256,5.281
				C597.416,77.492,613.396,55.938,634.291,40.74z"/>
			<path class="st0" d="M706.863,264.937c-0.406,0-0.363-0.011-1.363-0.017v17.09c1,0.007,0.957,0.017,1.363,0.017
				c30.979,0,59.729-10.049,83.021-27.049l-10.08-13.82C759.332,256.103,734.091,264.937,706.863,264.937z"/>
		</g>
	</g>
	<g>
		<circle class="st9" cx="757.316" cy="136.136" r="42.226"/>
		<path class="st8" d="M784.287,139.715h-8.643h-1.422c-1.828,12.726-12.779,22.607-26.025,22.607
			c-14.527,0-26.301-11.699-26.301-26.225c0-14.523,11.773-26.334,26.301-26.334c13.422,0,24.49,9.988,26.09,22.979l0.008-0.66h1.35
			h8.643c1.637,0,3.117,1.613,3.117,3.252v1.604C787.402,138.574,785.923,139.715,784.287,139.715z"/>
		<circle cx="747.722" cy="136.136" r="22.101"/>
		<circle class="st9" cx="655.765" cy="136.135" r="42.226"/>
		<path class="st8" d="M625.677,136.938v-1.604c0-1.639,1.48-3.252,3.117-3.252h8.643h1.352l0.006,0.66
			c1.602-12.99,12.668-22.979,26.092-22.979c14.525,0,26.299,11.811,26.299,26.334c0,14.525-11.773,26.225-26.299,26.225
			c-13.246,0-24.197-9.884-26.025-22.607h-1.422h-8.643C627.158,139.715,625.677,138.574,625.677,136.938z"/>
		<circle cx="664.412" cy="136.136" r="22.101"/>
	</g>
</g>
<g>
	<g>
		<path class="st7" d="M547.914,141c0,13.296-2.115,26.104-6.01,38.122l16.254,5.279C562.591,170.724,565,156.14,565,141
			c0-15.266-2.449-29.968-6.957-43.747l-16.252,5.28C545.757,114.649,547.914,127.576,547.914,141z"/>
		<path class="st7" d="M423.357,17.088c27.144,0,52.601,8.782,73.037,23.646l10.201-13.819C483.337,9.995,454.173,0,423.277,0
			c-0.406,0-0.777,0.012-1.777,0.014v17.09C422.5,17.1,422.951,17.088,423.357,17.088z"/>
		<path class="st7" d="M496.898,241.134l10.041,13.819c23.779-17.36,41.947-41.968,51.219-70.552l-16.254-5.279
			C533.761,204.244,517.798,225.875,496.898,241.134z"/>
		<path class="st7" d="M541.791,102.533l16.252-5.28c-9.326-28.509-27.51-53.042-51.285-70.337l-10.041,13.819
			C517.609,55.929,533.591,77.485,541.791,102.533z"/>
		<g>
			<path class="st0" d="M350.639,40.735c20.136-14.64,43.861-23.371,70.861-23.631V0.014c-30,0.26-58.269,10.204-81.223,26.902
				L350.639,40.735z"/>
			<path class="st7" d="M350.457,241.134l-10.359,13.819c22.985,16.772,51.402,26.771,81.402,27.03v-17.088
				C394.5,264.636,370.623,255.854,350.457,241.134z"/>
			<path class="st0" d="M306.099,179.12l-16.251,5.281c9.27,28.584,27.434,53.19,51.213,70.552l10.041-13.819
				C330.202,225.875,314.239,204.244,306.099,179.12z"/>
			<path class="st0" d="M300.089,141c0-13.424,2.156-26.351,6.123-38.467l-16.254-5.28C285.45,111.032,283,125.734,283,141
				c0,15.14,2.411,29.724,6.847,43.401l16.251-5.281C302.204,167.104,300.089,154.296,300.089,141z"/>
			<path class="st0" d="M351.283,40.735l-10.04-13.819c-23.775,17.296-41.958,41.829-51.285,70.337l16.254,5.28
				C314.412,77.485,330.391,55.931,351.283,40.735z"/>
			<path class="st7" d="M423.357,264.911c-0.406,0-0.857-0.012-1.857-0.016v17.088c1,0.004,1.451,0.016,1.857,0.016
				c30.974,0,59.968-10.05,83.259-27.046l-10.201-13.819C475.943,256.077,450.582,264.911,423.357,264.911z"/>
		</g>
	</g>
	<g>
		<path d="M410.45,188.578c0,0-3.097,5.646-6.413,4.489c-6.937-2.414-12.127-1.346-15.768,0.127c-4.2,1.701-8.134,3.943-8.134,3.943
			s2.709,1.321,5.835,1.983c1.117,0.235,4.218,1.053,4.218,1.053s-3.298-0.362-6.213,1.236c-3.652,2.01-7.608,3.979-7.608,3.979
			s5.089,2.528,8.906,3.11c1.759,0.267,6.553-0.683,6.553-0.683s-4.69,1.438-6.229,2.478c-1.594,1.076-3.486,2.467-3.486,2.467
			s2.463,2.345,9.339,3.226c1.232,0.156,6.841-0.174,11.951-3.435c2.698-1.723,11.643-6.87,11.643-6.87L410.45,188.578z"/>
		<path class="st1" d="M460.933,155.983c0,0,12.002,9.604,19.203,18.457c6.568,8.072,9.363,20.403-0.049,25.653
			c-10.227,5.7-28.957,9.452-40.359,11.104s-23.453,2.614-24.803,2.766c-1.351,0.149-5.057,0.942-6.311-3.065
			c-1.552-4.951-2.494-23.104-0.693-25.656c1.8-2.551,9.771-1.521,15.612-1.285"/>
		<rect x="376.5" y="161.5" class="st4" width="76" height="31"/>
		<path class="st4" d="M447.109,151.688c-11.217,0-14.492-0.403-14.5,5.196c-0.01,9.403-0.396,23.456,7.002,21.376
			c6.914-1.943,21.408-6.347,30.711-10.146c8.902-3.639,10.053-10.467,7.852-15.269c-2.201-4.8-15.18-23.537-15.18-23.537
			s-11.588,0.385-16.689,2.085c-2.83,0.943-16.553,5.389-16.553,5.389l-8.251,9.147c0,0,0,5.303,0,15.951c0,7.205,0,11.617,0,11.617
			h26"/>
		<path class="st11" d="M435,164.875c0,0-3.42,0.133-4.984-1.887c-2.518-3.253-1.779-12.175-1.779-12.175
			s-9.147,18.572,0.088,21.932c3.625,1.318,6.678,0.844,6.678,0.844v-8.714H435z"/>
		<path class="st1" d="M447.966,151.933c-11.217,0-14.92-0.523-14.928,5.076c-0.01,9.403-0.611,23.395,6.789,21.314
			c6.914-1.943,21.301-6.379,30.602-10.18c8.902-3.639,9.998-10.48,7.797-15.281c-2.199-4.803-15.205-23.544-15.205-23.544"/>
		<g>
			<path class="st4" d="M424.552,145.919c0.004-0.208,0.164-5.177,3.646-11.262c4.689-8.211,13.342-13.448,18.51-16.578
				c0.855-0.519,1.617-0.979,2.25-1.387c0.404-0.262,0.957-0.62,1.766-0.62c1.096,0,2.35,0.679,3.836,2.076l0.982,0.92
				c2.768,2.594,6.557,6.146,9.418,8.982c0.533,0.527,0.719,1.046,0.553,1.543c-0.434,1.302-3.127,1.732-7.85,2.383
				c-1.977,0.272-4.02,0.554-5.814,0.946c-7.92,1.736-14.387,3.405-19.514,7.705c-5.104,4.278-6.963,5.688-6.98,5.702l-0.826,0.625
				L424.552,145.919z"/>
			<path class="st8" d="M450.724,116.572c0.801,0,1.895,0.438,3.494,1.94c2.906,2.728,7.188,6.72,10.391,9.894
				c2.639,2.614-6.645,2.667-12.865,4.028c-7.611,1.668-14.373,3.318-19.73,7.811c-5.15,4.318-6.961,5.688-6.961,5.688
				s0.123-4.98,3.58-11.026c5.4-9.452,16.16-14.934,20.596-17.793C449.609,116.866,450.068,116.572,450.724,116.572
				 M450.724,115.572L450.724,115.572c-0.957,0-1.607,0.422-2.039,0.7c-0.623,0.401-1.369,0.854-2.236,1.379
				c-5.209,3.154-13.93,8.435-18.686,16.758c-3.542,6.193-3.706,11.283-3.711,11.498l-0.051,2.072l1.653-1.25
				c0.076-0.058,1.889-1.433,7.002-5.719c5.039-4.227,11.445-5.879,19.301-7.601c1.775-0.389,3.809-0.668,5.773-0.938
				c5.062-0.697,7.727-1.135,8.256-2.721c0.158-0.477,0.172-1.219-0.674-2.056c-2.867-2.843-6.66-6.397-9.43-8.992l-0.98-0.921
				C453.294,116.275,451.968,115.572,450.724,115.572L450.724,115.572z"/>
		</g>
		<path d="M430.976,187.106c0,0,3.51,6.403,7.271,5.097c7.865-2.742,13.752-1.529,17.881,0.144c4.764,1.926,9.223,4.471,9.223,4.471
			s-3.07,1.496-6.615,2.248c-1.27,0.271-4.781,1.193-4.781,1.193s3.738-0.41,7.043,1.404c4.143,2.275,8.629,4.511,8.629,4.511
			s-5.77,2.869-10.1,3.527c-1.994,0.301-7.432-0.773-7.432-0.773s5.32,1.634,7.066,2.81c1.805,1.223,3.951,2.796,3.951,2.796
			s-2.793,2.661-10.588,3.659c-1.398,0.179-7.758-0.196-13.557-3.896c-3.059-1.95-13.201-7.79-13.201-7.79L430.976,187.106z"/>
		<path class="st1" d="M383.579,158.386c0,0-12.003,9.604-19.204,18.455c-6.566,8.073-9.362,20.404,0.05,25.654
			c10.227,5.702,28.956,9.452,40.359,11.104c11.401,1.648,23.454,2.615,24.803,2.767c1.352,0.149,5.057,0.94,6.312-3.067
			c1.549-4.949,2.492-23.105,0.691-25.654c-1.801-2.553-33.76-5.054-39.603-4.817"/>
		<path class="st4" d="M399.393,151.688c11.218,0,15.241-0.403,15.247,5.196c0.013,9.403,0.773,23.456-6.628,21.376
			c-6.913-1.943-21.218-6.347-30.52-10.146c-8.903-3.639-9.959-10.467-7.758-15.269c2.198-4.8,15.223-23.537,15.223-23.537
			s11.615,0.385,16.717,2.085c2.829,0.943,14.065,5.389,14.065,5.389l5.761,9.147c0,0,0,5.303,0,15.951c0,7.205,0,11.617,0,11.617
			h-24"/>
		<path class="st11" d="M411,164.875c0,0,4.423,0.133,5.987-1.887c2.518-3.253,2.276-12.175,2.276-12.175s8.396,18.572-0.835,21.932
			c-3.629,1.318-7.43,0.844-7.43,0.844L411,164.875L411,164.875z"/>
		<path class="st1" d="M400.033,151.933c11.218,0,14.922-0.523,14.929,5.076c0.011,9.403,0.612,23.395-6.786,21.314
			c-6.917-1.943-21.302-6.379-30.604-10.18c-8.903-3.639-9.999-10.48-7.798-15.281c2.198-4.803,15.204-23.544,15.204-23.544"/>
		<g>
			<path class="st4" d="M422.976,146.353c-0.087-0.058-2.19-1.435-7.311-5.725c-5.124-4.299-11.591-5.969-19.514-7.705
				c-1.795-0.393-3.837-0.674-5.812-0.946c-4.723-0.65-7.416-1.081-7.85-2.383c-0.166-0.497,0.02-1.016,0.552-1.543
				c2.896-2.87,6.723-6.457,9.518-9.075l0.885-0.828c1.486-1.396,2.74-2.075,3.835-2.075c0.808,0,1.361,0.358,1.769,0.62
				c0.633,0.408,1.396,0.87,2.253,1.39c5.167,3.129,13.815,8.367,18.507,16.575c3.471,6.072,3.924,11.024,3.94,11.231l0.086,1.019
				L422.976,146.353z"/>
			<path class="st8" d="M397.277,116.572c0.654,0,1.114,0.294,1.497,0.54c4.435,2.859,15.193,8.341,20.597,17.793
				c3.455,6.046,3.877,11.025,3.877,11.025s-2.107-1.367-7.262-5.687c-5.354-4.492-12.116-6.143-19.729-7.811
				c-6.223-1.361-15.505-1.414-12.866-4.028c3.201-3.174,7.482-7.166,10.393-9.895C395.383,117.011,396.477,116.572,397.277,116.572
				 M397.277,115.572c-1.244,0-2.571,0.703-4.179,2.212l-0.883,0.827c-2.797,2.62-6.628,6.209-9.528,9.085
				c-0.845,0.837-0.832,1.579-0.674,2.056c0.529,1.586,3.194,2.023,8.256,2.721c1.967,0.271,3.999,0.55,5.774,0.938
				c7.854,1.722,14.263,3.374,19.299,7.6c5.144,4.311,7.271,5.702,7.36,5.76l1.713,1.111l-0.173-2.033
				c-0.019-0.214-0.48-5.271-4.005-11.438c-4.756-8.321-13.474-13.601-18.683-16.755c-0.866-0.525-1.616-0.979-2.24-1.383
				C398.885,115.993,398.231,115.572,397.277,115.572L397.277,115.572z"/>
		</g>
		<path class="st3" d="M429.951,185.494c0,0,6.979-1.265,8.066-2.954c0.818-1.273-1.426-1.801-1.426-1.801"/>
		<g>
			<g>
				<circle cx="401.915" cy="83.79" r="11.722"/>
				<circle cx="413.638" cy="78.579" r="11.722"/>
				<circle cx="423.396" cy="72.728" r="9.324"/>
			</g>
			<g>
				<circle cx="444.441" cy="83.79" r="11.721"/>
				<circle cx="432.72" cy="78.579" r="11.723"/>
				<circle cx="422.961" cy="72.728" r="9.325"/>
			</g>
			<path d="M396.489,79.448c0,0-4.49,2.076-16.498,0.217c-5.604-0.869-10.482-1.572-20.405-6.937
				c-2.835-1.533-3.934,0.898-0.867,5.851c4.671,7.538,5.951,8.997,16.933,17.148c10.273,7.628,18.668,8.249,23.878,6.511
				C404.737,100.502,396.489,79.448,396.489,79.448z"/>
			<path d="M451.511,79.448c0,0,4.492,2.076,16.498,0.217c5.602-0.869,10.482-1.572,20.404-6.937
				c2.836-1.533,3.934,0.898,0.867,5.851c-4.67,7.538-5.951,8.997-16.932,17.148c-10.273,7.628-18.668,8.249-23.879,6.511
				C443.263,100.502,451.511,79.448,451.511,79.448z"/>
			<g>
				<path d="M454.23,99.967c-1.938,10.931-15.273,25.582-30.281,26.139c-15.009-0.557-28.344-15.208-30.282-26.139
					c-2.024-10.913,11.243-26.557,30.282-27.097C442.988,73.41,456.255,89.053,454.23,99.967z"/>
			</g>
		</g>
		<path class="st6" d="M420.371,93.433c0,0-1.783,4.539-6.589,4.539c-5.396,0-6.588-4.539-6.588-4.539"/>
		<path class="st6" d="M439.576,93.433c0,0-1.783,4.539-6.59,4.539c-5.396,0-6.588-4.539-6.588-4.539"/>
		<g>
			<path class="st4" d="M427.189,104.543c0.574,1.27-0.982,2.729-3.496,2.76c-2.514-0.03-4.071-1.49-3.496-2.76
				c0.57-1.272,2.133-2.592,3.496-2.624C425.056,101.951,426.617,103.271,427.189,104.543z"/>
		</g>
		<path class="st2" d="M418.188,103.672c0,0-0.601,4.477-5.301,7.003c-4.313,2.318-8.476,1.949-8.476,1.949"/>
		<path class="st2" d="M429.617,103.672c0,0,0.6,4.477,5.301,7.003c4.312,2.318,8.477,1.949,8.477,1.949"/>
		<line class="st5" x1="419.5" y1="115" x2="426.5" y2="115"/>
	</g>
</g>
<g>
	<g>
		<path class="st0" d="M264.913,141.002c0,13.298-2.113,26.104-6.007,38.123l16.251,5.278c4.437-13.68,6.843-28.264,6.843-43.401
			c0-15.267-2.447-29.969-6.957-43.748l-16.25,5.28C262.759,114.65,264.913,127.579,264.913,141.002z"/>
		<path class="st7" d="M140.856,17.088c27.146,0,52.352,8.783,72.79,23.648l10.073-13.819C200.462,9.995,171.736,0,140.839,0
			c-0.406,0-0.339,0.012-1.339,0.014v17.092C140.5,17.1,140.45,17.088,140.856,17.088z"/>
		<path class="st0" d="M213.898,241.136l10.042,13.819c23.78-17.358,41.948-41.967,51.217-70.552l-16.251-5.278
			C250.762,204.248,234.799,225.879,213.898,241.136z"/>
		<path class="st7" d="M258.792,102.534l16.25-5.28c-9.326-28.508-27.509-53.041-51.285-70.336l-10.04,13.819
			C234.611,55.929,250.592,77.486,258.792,102.534z"/>
		<g>
			<path class="st0" d="M68.138,40.737C88.273,26.095,112.5,17.364,139.5,17.106V0.014c-30,0.26-58.519,10.204-81.474,26.904
				L68.138,40.737z"/>
			<path class="st0" d="M67.956,241.136l-10.11,13.819c22.986,16.774,51.654,26.772,81.654,27.03v-17.088
				C112.5,264.64,88.123,255.856,67.956,241.136z"/>
			<path class="st0" d="M23.098,179.121l-16.252,5.282c9.27,28.585,27.433,53.193,51.216,70.552l10.04-13.819
				C47.201,225.879,31.238,204.248,23.098,179.121z"/>
			<path class="st0" d="M17.088,141.002c0-13.423,2.156-26.352,6.122-38.468l-16.253-5.28C2.449,111.033,0,125.735,0,141.002
				c0,15.14,2.41,29.722,6.845,43.401l16.252-5.282C19.204,167.106,17.088,154.3,17.088,141.002z"/>
			<path class="st0" d="M68.283,40.737l-10.04-13.819C34.468,44.213,16.286,68.746,6.957,97.254l16.253,5.28
				C31.412,77.486,47.39,55.933,68.283,40.737z"/>
			<path class="st0" d="M140.856,264.913c-0.406,0-0.356-0.01-1.356-0.016v17.088c1,0.007,0.95,0.017,1.356,0.017
				c30.976,0,59.719-10.049,83.012-27.047l-10.078-13.819C193.318,256.08,168.083,264.913,140.856,264.913z"/>
		</g>
	</g>
	<g>
		<g>
			<path d="M144.872,67.381c10.67-14.063,25.501-14.131,25.501-14.131s2.207,13.221-8.394,25.957
				C150.663,92.807,137.8,90.58,137.8,90.58S135.383,79.886,144.872,67.381z"/>
			<path d="M139.156,99.841c5.49,0,15.676-7.543,28.935-7.543c22.824,0,31.805,16.241,31.805,16.241s-17.563,8.979-17.563,30.765
				c0,24.578,21.877,33.048,21.877,33.048s-15.292,43.043-35.95,43.043c-9.487,0-16.861-6.393-26.857-6.393
				c-10.187,0-20.297,6.63-26.88,6.63c-18.862,0-42.691-40.83-42.691-73.651c0-32.291,20.17-49.229,39.089-49.229
				C123.219,92.75,132.762,99.841,139.156,99.841z"/>
		</g>
		<circle cx="197.146" cy="151.599" r="3.629"/>
		<circle cx="197.146" cy="128.224" r="3.629"/>
		<line class="st10" x1="174.47" y1="118.604" x2="188.955" y2="128.948"/>
		<line class="st10" x1="188.955" y1="149.921" x2="174.47" y2="160.269"/>
	</g>
</g>
</svg>
